{
  "asset": {
    "version": "2.0",
    "generator": "THREE.GLTFExporter r164"
  },
  "scenes": [
    {
      "name": "Scene",
      "nodes": [
        11,
        12,
        13,
        14,
        15,
        16
      ]
    }
  ],
  "scene": 0,
  "nodes": [
    {
      "name": "Plane381",
      "mesh": 0
    },
    {
      "name": "Plane381_1",
      "mesh": 1
    },
    {
      "matrix": [
        1,
        0,
        0,
        0,
        0,
        -1.3435885648505064e-7,
        1.0000001343588565,
        0,
        0,
        -1.0000001343588565,
        -1.3435885648505064e-7,
        0,
        0,
        0.44485577940940857,
        0.0006145238876342773,
        1
      ],
      "name": "Helmet_11019",
      "extras": {
        "name": "Helmet 11.019"
      },
      "children": [
        0,
        1
      ]
    },
    {
      "name": "Circle007",
      "mesh": 2
    },
    {
      "name": "Circle007_1",
      "mesh": 3
    },
    {
      "matrix": [
        0.08168161660432816,
        0,
        0,
        0,
        0,
        0.10503432899713516,
        0,
        0,
        0,
        0,
        0.08168161660432816,
        0,
        -0.0008754816371947527,
        0.5049694776535034,
        -0.012838505208492279,
        1
      ],
      "name": "Circle031",
      "extras": {
        "name": "Circle.031"
      },
      "children": [
        3,
        4
      ]
    },
    {
      "name": "Plane069",
      "mesh": 4
    },
    {
      "name": "Plane069_1",
      "mesh": 5
    },
    {
      "matrix": [
        -0.006370070390403271,
        0,
        0,
        0,
        0,
        8.558753733838635e-10,
        -0.006370071246278644,
        0,
        0,
        0.006370071246278644,
        8.558753733838635e-10,
        0,
        0.000011320225894451141,
        0.3525013327598572,
        0.11532370001077652,
        1
      ],
      "name": "Plane009",
      "extras": {
        "name": "Plane.009"
      },
      "children": [
        6,
        7
      ]
    },
    {
      "matrix": [
        1,
        0,
        0,
        0,
        0,
        -1.3435885648505064e-7,
        1.0000001343588565,
        0,
        0,
        -1.0000001343588565,
        -1.3435885648505064e-7,
        0,
        0,
        0.44485577940940857,
        0.0006145238876342773,
        1
      ],
      "name": "Headeyes_6033",
      "extras": {
        "name": "Headeyes 6.033"
      },
      "mesh": 6
    },
    {
      "matrix": [
        -0.020573269752240057,
        0.00008547943274988255,
        -0.0000031154026177640694,
        0,
        -0.00002211252756946782,
        -0.005314058120197713,
        0.00021965728112153138,
        0,
        1.079425156246271e-7,
        0.00021965873111722152,
        0.005314103797116716,
        0,
        -0.0007455977611243725,
        0.41796478629112244,
        0.09164956212043762,
        1
      ],
      "name": "Cube029",
      "extras": {
        "name": "Cube.029"
      },
      "mesh": 7
    },
    {
      "name": "Primobot1",
      "children": [
        2,
        5,
        8,
        9,
        10
      ]
    },
    {
      "matrix": [
        1,
        0,
        0,
        0,
        0,
        1,
        0,
        0,
        0,
        0,
        1,
        0,
        -0.029012745441254595,
        0,
        0,
        1
      ],
      "name": "AmbientLight"
    },
    {
      "matrix": [
        1,
        0,
        0,
        0,
        0,
        1,
        0,
        0,
        0,
        0,
        1,
        0,
        -7.162535592102582,
        10,
        7.5,
        1
      ],
      "name": "DirectionalLight",
      "extensions": {
        "KHR_lights_punctual": {
          "light": 0
        }
      }
    },
    {
      "matrix": [
        1,
        0,
        0,
        0,
        0,
        1,
        0,
        0,
        0,
        0,
        1,
        0,
        5,
        10,
        3.7897042690108496,
        1
      ],
      "name": "DirectionalLight",
      "extensions": {
        "KHR_lights_punctual": {
          "light": 1
        }
      }
    },
    {
      "matrix": [
        1,
        0,
        0,
        0,
        0,
        1,
        0,
        0,
        0,
        0,
        1,
        0,
        -12.91448133792511,
        3.309627278862237,
        -11.0641244782225,
        1
      ],
      "name": "DirectionalLight",
      "extensions": {
        "KHR_lights_punctual": {
          "light": 2
        }
      }
    },
    {
      "matrix": [
        1,
        0,
        0,
        0,
        0,
        1,
        0,
        0,
        0,
        0,
        1,
        0,
        -0.000019824733459997482,
        0.41021431530195845,
        0.9631672589068418,
        1
      ],
      "name": "OrthographicCamera",
      "camera": 0
    }
  ],
  "bufferViews": [
    {
      "buffer": 0,
      "byteOffset": 0,
      "byteLength": 9636,
      "target": 34962,
      "byteStride": 12
    },
    {
      "buffer": 0,
      "byteOffset": 9636,
      "byteLength": 9636,
      "target": 34962,
      "byteStride": 12
    },
    {
      "buffer": 0,
      "byteOffset": 19272,
      "byteLength": 6424,
      "target": 34962,
      "byteStride": 8
    },
    {
      "buffer": 0,
      "byteOffset": 25696,
      "byteLength": 4512,
      "target": 34963
    },
    {
      "buffer": 0,
      "byteOffset": 30208,
      "byteLength": 384,
      "target": 34962,
      "byteStride": 12
    },
    {
      "buffer": 0,
      "byteOffset": 30592,
      "byteLength": 384,
      "target": 34962,
      "byteStride": 12
    },
    {
      "buffer": 0,
      "byteOffset": 30976,
      "byteLength": 256,
      "target": 34962,
      "byteStride": 8
    },
    {
      "buffer": 0,
      "byteOffset": 31232,
      "byteLength": 96,
      "target": 34963
    },
    {
      "buffer": 0,
      "byteOffset": 31328,
      "byteLength": 8304,
      "target": 34962,
      "byteStride": 12
    },
    {
      "buffer": 0,
      "byteOffset": 39632,
      "byteLength": 8304,
      "target": 34962,
      "byteStride": 12
    },
    {
      "buffer": 0,
      "byteOffset": 47936,
      "byteLength": 5536,
      "target": 34962,
      "byteStride": 8
    },
    {
      "buffer": 0,
      "byteOffset": 53472,
      "byteLength": 2076,
      "target": 34963
    },
    {
      "buffer": 0,
      "byteOffset": 55548,
      "byteLength": 720,
      "target": 34962,
      "byteStride": 12
    },
    {
      "buffer": 0,
      "byteOffset": 56268,
      "byteLength": 720,
      "target": 34962,
      "byteStride": 12
    },
    {
      "buffer": 0,
      "byteOffset": 56988,
      "byteLength": 480,
      "target": 34962,
      "byteStride": 8
    },
    {
      "buffer": 0,
      "byteOffset": 57468,
      "byteLength": 180,
      "target": 34963
    },
    {
      "buffer": 0,
      "byteOffset": 57648,
      "byteLength": 9072,
      "target": 34962,
      "byteStride": 12
    },
    {
      "buffer": 0,
      "byteOffset": 66720,
      "byteLength": 9072,
      "target": 34962,
      "byteStride": 12
    },
    {
      "buffer": 0,
      "byteOffset": 75792,
      "byteLength": 6048,
      "target": 34962,
      "byteStride": 8
    },
    {
      "buffer": 0,
      "byteOffset": 81840,
      "byteLength": 2352,
      "target": 34963
    },
    {
      "buffer": 0,
      "byteOffset": 84192,
      "byteLength": 4032,
      "target": 34962,
      "byteStride": 12
    },
    {
      "buffer": 0,
      "byteOffset": 88224,
      "byteLength": 4032,
      "target": 34962,
      "byteStride": 12
    },
    {
      "buffer": 0,
      "byteOffset": 92256,
      "byteLength": 2688,
      "target": 34962,
      "byteStride": 8
    },
    {
      "buffer": 0,
      "byteOffset": 94944,
      "byteLength": 1008,
      "target": 34963
    },
    {
      "buffer": 0,
      "byteOffset": 95952,
      "byteLength": 4416,
      "target": 34962,
      "byteStride": 12
    },
    {
      "buffer": 0,
      "byteOffset": 100368,
      "byteLength": 4416,
      "target": 34962,
      "byteStride": 12
    },
    {
      "buffer": 0,
      "byteOffset": 104784,
      "byteLength": 2944,
      "target": 34962,
      "byteStride": 8
    },
    {
      "buffer": 0,
      "byteOffset": 107728,
      "byteLength": 2396,
      "target": 34963
    },
    {
      "buffer": 0,
      "byteOffset": 110124,
      "byteLength": 1728,
      "target": 34962,
      "byteStride": 12
    },
    {
      "buffer": 0,
      "byteOffset": 111852,
      "byteLength": 1728,
      "target": 34962,
      "byteStride": 12
    },
    {
      "buffer": 0,
      "byteOffset": 113580,
      "byteLength": 1152,
      "target": 34962,
      "byteStride": 8
    },
    {
      "buffer": 0,
      "byteOffset": 114732,
      "byteLength": 432,
      "target": 34963
    }
  ],
  "buffers": [
    {
      "byteLength": 115164,
      "uri": "data:application/octet-stream;base64,"
    }
  ],
  "accessors": [
    {
      "bufferView": 0,
      "componentType": 5126,
      "count": 803,
      "max": [
        0.08782637119293213,
        0.07774677872657776,
        0.09089373797178268
      ],
      "min": [
        -0.08782653510570526,
        -0.11183388531208038,
        -0.09906591475009918
      ],
      "type": "VEC3"
    },
    {
      "bufferView": 1,
      "componentType": 5126,
      "count": 803,
      "max": [
        0.9999682903289795,
        0.9886249899864197,
        0.9998207092285156
      ],
      "min": [
        -0.9999682903289795,
        -0.9719894528388977,
        -0.9998316764831543
      ],
      "type": "VEC3"
    },
    {
      "bufferView": 2,
      "componentType": 5126,
      "count": 803,
      "max": [
        1,
        1
      ],
      "min": [
        0.03090236335992813,
        0.151664137840271
      ],
      "type": "VEC2"
    },
    {
      "bufferView": 3,
      "componentType": 5123,
      "count": 2256,
      "max": [
        802
      ],
      "min": [
        0
      ],
      "type": "SCALAR"
    },
    {
      "bufferView": 4,
      "componentType": 5126,
      "count": 32,
      "max": [
        0.08578092604875565,
        0.04091072827577591,
        -0.004304653964936733
      ],
      "min": [
        -0.08578108996152878,
        -0.040445476770401,
        -0.052750710397958755
      ],
      "type": "VEC3"
    },
    {
      "bufferView": 5,
      "componentType": 5126,
      "count": 32,
      "max": [
        0.999721884727478,
        0.4419551491737366,
        0.06760196387767792
      ],
      "min": [
        -0.999721884727478,
        -0.12014999240636826,
        -0.3169136643409729
      ],
      "type": "VEC3"
    },
    {
      "bufferView": 6,
      "componentType": 5126,
      "count": 32,
      "max": [
        0.7247692942619324,
        0.9378384947776794
      ],
      "min": [
        0.14348438382148743,
        0.8339856266975403
      ],
      "type": "VEC2"
    },
    {
      "bufferView": 7,
      "componentType": 5123,
      "count": 48,
      "max": [
        31
      ],
      "min": [
        0
      ],
      "type": "SCALAR"
    },
    {
      "bufferView": 8,
      "componentType": 5126,
      "count": 692,
      "max": [
        1.0802572965621948,
        0.8745517134666443,
        1.0875911712646484
      ],
      "min": [
        -1.0802572965621948,
        -0.4925527274608612,
        -1.0877183675765991
      ],
      "type": "VEC3"
    },
    {
      "bufferView": 9,
      "componentType": 5126,
      "count": 692,
      "max": [
        0.9807853698730469,
        0.9931299686431885,
        0.9807853698730469
      ],
      "min": [
        -0.9807852506637573,
        -0.9956538677215576,
        -0.9819947481155396
      ],
      "type": "VEC3"
    },
    {
      "bufferView": 10,
      "componentType": 5126,
      "count": 692,
      "max": [
        0.9999998807907104,
        1
      ],
      "min": [
        0,
        0.009081244468688965
      ],
      "type": "VEC2"
    },
    {
      "bufferView": 11,
      "componentType": 5123,
      "count": 1038,
      "max": [
        691
      ],
      "min": [
        0
      ],
      "type": "SCALAR"
    },
    {
      "bufferView": 12,
      "componentType": 5126,
      "count": 60,
      "max": [
        1.0802572965621948,
        0.7747620344161987,
        1.0875911712646484
      ],
      "min": [
        -1.0802572965621948,
        -0.02925799787044525,
        -1.0877183675765991
      ],
      "type": "VEC3"
    },
    {
      "bufferView": 13,
      "componentType": 5126,
      "count": 60,
      "max": [
        0.9789987802505493,
        0.01887867972254753,
        0.9799365997314453
      ],
      "min": [
        -0.9796985983848572,
        -0.15898853540420532,
        -0.9804273843765259
      ],
      "type": "VEC3"
    },
    {
      "bufferView": 14,
      "componentType": 5126,
      "count": 60,
      "max": [
        0.9999998807907104,
        0.9456818103790283
      ],
      "min": [
        0.2662931978702545,
        0.1427903175354004
      ],
      "type": "VEC2"
    },
    {
      "bufferView": 15,
      "componentType": 5123,
      "count": 90,
      "max": [
        59
      ],
      "min": [
        0
      ],
      "type": "SCALAR"
    },
    {
      "bufferView": 16,
      "componentType": 5126,
      "count": 756,
      "max": [
        11.114886283874512,
        15.492718696594238,
        3.3157131671905518
      ],
      "min": [
        -11.114886283874512,
        -1.6401481628417969,
        -5.442102432250977
      ],
      "type": "VEC3"
    },
    {
      "bufferView": 17,
      "componentType": 5126,
      "count": 756,
      "max": [
        0.8975331783294678,
        0.8663173317909241,
        1
      ],
      "min": [
        -0.8975331783294678,
        -0.9002968072891235,
        -1
      ],
      "type": "VEC3"
    },
    {
      "bufferView": 18,
      "componentType": 5126,
      "count": 756,
      "max": [
        0.875,
        1
      ],
      "min": [
        0,
        0
      ],
      "type": "VEC2"
    },
    {
      "bufferView": 19,
      "componentType": 5123,
      "count": 1176,
      "max": [
        755
      ],
      "min": [
        0
      ],
      "type": "SCALAR"
    },
    {
      "bufferView": 20,
      "componentType": 5126,
      "count": 336,
      "max": [
        9.37312126159668,
        8.149996757507324,
        2.120650053024292
      ],
      "min": [
        -9.37312126159668,
        5.575530529022217,
        -1.9605995416641235
      ],
      "type": "VEC3"
    },
    {
      "bufferView": 21,
      "componentType": 5126,
      "count": 336,
      "max": [
        0.7458134293556213,
        0.520877480506897,
        0.9793826341629028
      ],
      "min": [
        -0.7458149194717407,
        -0.7073679566383362,
        -0.9949944019317627
      ],
      "type": "VEC3"
    },
    {
      "bufferView": 22,
      "componentType": 5126,
      "count": 336,
      "max": [
        0.625,
        1
      ],
      "min": [
        0.125,
        0
      ],
      "type": "VEC2"
    },
    {
      "bufferView": 23,
      "componentType": 5123,
      "count": 504,
      "max": [
        335
      ],
      "min": [
        0
      ],
      "type": "SCALAR"
    },
    {
      "bufferView": 24,
      "componentType": 5126,
      "count": 368,
      "max": [
        0.07994474470615387,
        0.11180809140205383,
        0.13553228974342346
      ],
      "min": [
        -0.07994472980499268,
        -0.10717109590768814,
        -0.09513218700885773
      ],
      "type": "VEC3"
    },
    {
      "bufferView": 25,
      "componentType": 5126,
      "count": 368,
      "max": [
        0.9974168539047241,
        0.9996792674064636,
        0.9715961217880249
      ],
      "min": [
        -0.9974168539047241,
        -0.9661720991134644,
        -0.9998207092285156
      ],
      "type": "VEC3"
    },
    {
      "bufferView": 26,
      "componentType": 5126,
      "count": 368,
      "max": [
        1,
        1
      ],
      "min": [
        0,
        0.023542344570159912
      ],
      "type": "VEC2"
    },
    {
      "bufferView": 27,
      "componentType": 5123,
      "count": 1197,
      "max": [
        367
      ],
      "min": [
        0
      ],
      "type": "SCALAR"
    },
    {
      "bufferView": 28,
      "componentType": 5126,
      "count": 144,
      "max": [
        2.004793167114258,
        1,
        1.3061009645462036
      ],
      "min": [
        -2.004793167114258,
        -8.405292510986328,
        -1
      ],
      "type": "VEC3"
    },
    {
      "bufferView": 29,
      "componentType": 5126,
      "count": 144,
      "max": [
        1,
        0.9092304706573486,
        0.9035687446594238
      ],
      "min": [
        -1,
        -0.8978130221366882,
        -0.9035981893539429
      ],
      "type": "VEC3"
    },
    {
      "bufferView": 30,
      "componentType": 5126,
      "count": 144,
      "max": [
        0.875,
        1
      ],
      "min": [
        0.125,
        0
      ],
      "type": "VEC2"
    },
    {
      "bufferView": 31,
      "componentType": 5123,
      "count": 216,
      "max": [
        143
      ],
      "min": [
        0
      ],
      "type": "SCALAR"
    }
  ],
  "materials": [
    {
      "pbrMetallicRoughness": {
        "baseColorFactor": [
          0.01189902238547802,
          0.01189902238547802,
          0.01189902238547802,
          1
        ],
        "metallicFactor": 1,
        "roughnessFactor": 0.6702127456665039
      },
      "doubleSided": true,
      "name": "Jet Black"
    },
    {
      "pbrMetallicRoughness": {
        "baseColorFactor": [
          0.9622131586074829,
          1,
          0.7250689268112183,
          1
        ],
        "metallicFactor": 0,
        "roughnessFactor": 0.5
      },
      "doubleSided": true,
      "name": "Glowing Yellow"
    },
    {
      "pbrMetallicRoughness": {
        "baseColorFactor": [
          0.027001718059182167,
          0.027001718059182167,
          0.027001718059182167,
          1
        ],
        "metallicFactor": 0,
        "roughnessFactor": 0.5
      },
      "doubleSided": true,
      "name": "Matte Black"
    },
    {
      "pbrMetallicRoughness": {
        "baseColorFactor": [
          0.259958952665329,
          0.09439806640148163,
          0.015794571489095688,
          1
        ],
        "metallicFactor": 0.6881720423698425,
        "roughnessFactor": 0.198924720287323
      },
      "doubleSided": true,
      "name": "Bronze OG"
    },
    {
      "pbrMetallicRoughness": {
        "baseColorFactor": [
          0.2294914722442627,
          0.05991733446717262,
          0.2294914722442627,
          1
        ],
        "metallicFactor": 0,
        "roughnessFactor": 0.5
      },
      "doubleSided": true,
      "name": "Matte Magenta"
    }
  ],
  "meshes": [
    {
      "primitives": [
        {
          "mode": 4,
          "attributes": {
            "POSITION": 0,
            "NORMAL": 1,
            "TEXCOORD_0": 2
          },
          "indices": 3,
          "material": 0
        }
      ]
    },
    {
      "primitives": [
        {
          "mode": 4,
          "attributes": {
            "POSITION": 4,
            "NORMAL": 5,
            "TEXCOORD_0": 6
          },
          "indices": 7,
          "material": 1
        }
      ]
    },
    {
      "primitives": [
        {
          "mode": 4,
          "attributes": {
            "POSITION": 8,
            "NORMAL": 9,
            "TEXCOORD_0": 10
          },
          "indices": 11,
          "material": 2
        }
      ]
    },
    {
      "primitives": [
        {
          "mode": 4,
          "attributes": {
            "POSITION": 12,
            "NORMAL": 13,
            "TEXCOORD_0": 14
          },
          "indices": 15,
          "material": 1
        }
      ]
    },
    {
      "primitives": [
        {
          "mode": 4,
          "attributes": {
            "POSITION": 16,
            "NORMAL": 17,
            "TEXCOORD_0": 18
          },
          "indices": 19,
          "material": 3
        }
      ]
    },
    {
      "primitives": [
        {
          "mode": 4,
          "attributes": {
            "POSITION": 20,
            "NORMAL": 21,
            "TEXCOORD_0": 22
          },
          "indices": 23,
          "material": 1
        }
      ]
    },
    {
      "primitives": [
        {
          "mode": 4,
          "attributes": {
            "POSITION": 24,
            "NORMAL": 25,
            "TEXCOORD_0": 26
          },
          "indices": 27,
          "material": 4
        }
      ]
    },
    {
      "primitives": [
        {
          "mode": 4,
          "attributes": {
            "POSITION": 28,
            "NORMAL": 29,
            "TEXCOORD_0": 30
          },
          "indices": 31,
          "material": 1
        }
      ]
    }
  ],
  "extensions": {
    "KHR_lights_punctual": {
      "lights": [
        {
          "name": "DirectionalLight",
          "color": [
            1,
            1,
            1
          ],
          "intensity": 5,
          "type": "directional"
        },
        {
          "name": "DirectionalLight",
          "color": [
            1,
            1,
            1
          ],
          "intensity": 2.5,
          "type": "directional"
        },
        {
          "name": "DirectionalLight",
          "color": [
            1,
            1,
            1
          ],
          "intensity": 1,
          "type": "directional"
        }
      ]
    }
  },
  "cameras": [
    {
      "type": "orthographic",
      "orthographic": {
        "xmag": 2.105058365758755,
        "ymag": 2,
        "zfar": 2000,
        "znear": 0.1
      },
      "name": "OrthographicCamera"
    }
  ],
  "extensionsUsed": [
    "KHR_lights_punctual"
  ]
}